<svg width="24" height="24" viewBox="0 0 24 24" fill="none" xmlns="http://www.w3.org/2000/svg">
<path d="M16.502 3.00001C15.6288 2.99851 14.7674 3.20077 13.9862 3.59072C13.205 3.98066 12.5256 4.54752 12.002 5.24621C11.2928 4.30266 10.3049 3.606 9.17799 3.25482C8.0511 2.90365 6.84231 2.91573 5.72267 3.28936C4.60303 3.663 3.62923 4.37926 2.93907 5.3368C2.24892 6.29434 1.87735 7.44467 1.87695 8.62501C1.87695 15.3621 11.237 20.6813 11.6355 20.9044C11.7474 20.9671 11.8736 21 12.002 21C12.1303 21 12.2565 20.9671 12.3684 20.9044C14.0899 19.8961 15.7056 18.7173 17.1912 17.3856C20.4663 14.438 22.127 11.4905 22.127 8.62501C22.1253 7.13368 21.5321 5.70393 20.4776 4.6494C19.423 3.59487 17.9933 3.0017 16.502 3.00001Z" fill="#DBE2E5"/>
</svg>
